<?xml version="1.0" encoding="UTF-8" standalone="no"?>
<svg width="317.5mm" height="114.829mm"
 xmlns="http://www.w3.org/2000/svg" xmlns:xlink="http://www.w3.org/1999/xlink"  version="1.2" baseProfile="tiny">
<desc>Created by HiQPdf</desc>
<defs>
</defs>
<g fill="none" stroke="black" stroke-width="1" fill-rule="evenodd" stroke-linecap="square" stroke-linejoin="bevel" >

<g fill="#000000" fill-opacity="1" stroke="#000000" stroke-opacity="1" stroke-width="1" stroke-linecap="square" stroke-linejoin="miter" stroke-miterlimit="2" transform="matrix(1,0,0,1,0,0)"
>
</g>

<g fill="#000000" fill-opacity="1" stroke="#000000" stroke-opacity="1" stroke-width="1" stroke-linecap="square" stroke-linejoin="miter" stroke-miterlimit="2" transform="matrix(1,0,0,1,0,0)"
>
</g>

<g fill="#000000" fill-opacity="1" stroke="#000000" stroke-opacity="1" stroke-width="1" stroke-linecap="square" stroke-linejoin="miter" stroke-miterlimit="2" transform="matrix(1,0,0,1,0,0)"
>
</g>

<g fill="#000000" fill-opacity="1" stroke="#000000" stroke-opacity="1" stroke-width="1" stroke-linecap="square" stroke-linejoin="miter" stroke-miterlimit="2" transform="matrix(0.528384,0,0,0.528384,287.197,106.568)"
>
</g>

<g fill="#000000" fill-opacity="1" stroke="#000000" stroke-opacity="1" stroke-width="1" stroke-linecap="square" stroke-linejoin="miter" stroke-miterlimit="2" transform="matrix(0.528384,0,0,0.528384,287.197,106.568)"
>
</g>

<g fill="#000000" fill-opacity="1" stroke="#000000" stroke-opacity="1" stroke-width="1" stroke-linecap="square" stroke-linejoin="miter" stroke-miterlimit="2" transform="matrix(1.19825,0,0,1.19825,409.791,105.371)"
>
</g>

<g fill="#000000" fill-opacity="1" stroke="none" transform="matrix(1.19825,0,0,1.19825,409.791,105.371)"
>
<path vector-effect="none" fill-rule="nonzero" d="M64.866,51.007 L52.164,52.703 C48.942,53.133 45.176,52.774 45.176,52.774 L31.946,51.007 C31.946,51.007 30.954,58.344 34.949,60.484 C38.89,62.595 40.868,62.259 42.08,62.085 C42.624,62.007 46.443,61.535 46.65,55.526 C47.877,55.748 49.111,55.651 50.161,55.525 C50.396,61.468 54.19,62.007 54.732,62.084 C55.945,62.258 57.922,62.594 61.863,60.483 C65.858,58.344 64.866,51.007 64.866,51.007 "/>
</g>

<g fill="#000000" fill-opacity="1" stroke="#000000" stroke-opacity="1" stroke-width="1" stroke-linecap="square" stroke-linejoin="miter" stroke-miterlimit="2" transform="matrix(1.19825,0,0,1.19825,409.791,105.371)"
>
</g>

<g fill="#000000" fill-opacity="1" stroke="#000000" stroke-opacity="1" stroke-width="1" stroke-linecap="square" stroke-linejoin="miter" stroke-miterlimit="2" transform="matrix(1.19825,0,0,1.19825,409.791,105.371)"
>
</g>

<g fill="#000000" fill-opacity="1" stroke="#000000" stroke-opacity="1" stroke-width="1" stroke-linecap="square" stroke-linejoin="miter" stroke-miterlimit="2" transform="matrix(1.19825,0,0,1.19825,409.791,105.371)"
>
</g>

<g fill="#000000" fill-opacity="1" stroke="none" transform="matrix(1.19825,0,0,1.19825,409.791,105.371)"
>
<path vector-effect="none" fill-rule="nonzero" d="M80.73,37.242 C79.8,36.239 70.324,35.202 70.324,35.202 L70.332,35.201 L48.935,36.696 L27.593,35.328 C25.328,35.593 18.854,36.416 18.088,37.242 C17.158,38.245 17.674,39.037 19.716,39.605 C22.601,40.409 25.315,41.147 28.18,42.031 C29.343,42.39 38.856,46.618 45.142,47.125 C47.7,47.331 48.576,47.411 49.41,47.411 C50.23,47.437 51.096,47.376 53.678,47.125 C59.953,46.514 69.477,42.39 70.64,42.031 C73.504,41.147 76.219,40.409 79.104,39.605 C81.144,39.037 81.66,38.245 80.73,37.242 "/>
</g>

<g fill="#000000" fill-opacity="1" stroke="#000000" stroke-opacity="1" stroke-width="1" stroke-linecap="square" stroke-linejoin="miter" stroke-miterlimit="2" transform="matrix(1.19825,0,0,1.19825,409.791,105.371)"
>
</g>

<g fill="#000000" fill-opacity="1" stroke="none" transform="matrix(1.19825,0,0,1.19825,409.791,105.371)"
>
<path vector-effect="none" fill-rule="nonzero" d="M62.763,18.217 C62.763,18.217 61.385,13.705 57.902,14.278 C54.951,14.763 52.015,16.691 50.719,16.856 C50.498,16.884 50.316,16.9 50.136,16.916 C50.136,16.916 49.864,16.953 49.409,16.954 C48.954,16.953 48.682,16.916 48.682,16.916 C48.502,16.901 48.32,16.884 48.099,16.856 C46.804,16.691 43.867,14.763 40.916,14.278 C37.433,13.705 36.055,18.217 36.055,18.217 L31.6,31.107 L67.218,31.107 L62.763,18.217"/>
</g>

<g fill="#000000" fill-opacity="1" stroke="#000000" stroke-opacity="1" stroke-width="1" stroke-linecap="square" stroke-linejoin="miter" stroke-miterlimit="2" transform="matrix(1.19825,0,0,1.19825,409.791,105.371)"
>
</g>

<g fill="#000000" fill-opacity="1" stroke="#000000" stroke-opacity="1" stroke-width="1" stroke-linecap="square" stroke-linejoin="miter" stroke-miterlimit="2" transform="matrix(1.19825,0,0,1.19825,409.791,105.371)"
>
</g>

<g fill="#000000" fill-opacity="1" stroke="none" transform="matrix(1.19825,0,0,1.19825,409.791,105.371)"
>
<path vector-effect="none" fill-rule="nonzero" d="M25.834,68.245 L42.54,79.293 L43.178,76.652 C43.453,75.601 45.389,74.065 47.017,72.931 C44.605,71.616 40.572,69.233 34.21,64.997 C30.736,62.683 26.927,59.38 24.364,57.096 C24.12,56.878 23.853,56.884 23.717,56.905 C23.581,56.928 23.327,57.007 23.163,57.292 C21.9,59.5 20.554,62.751 20.129,64.107 C21.278,64.991 23.192,66.379 25.834,68.245 "/>
</g>

<g fill="#000000" fill-opacity="1" stroke="#000000" stroke-opacity="1" stroke-width="1" stroke-linecap="square" stroke-linejoin="miter" stroke-miterlimit="2" transform="matrix(1.19825,0,0,1.19825,409.791,105.371)"
>
</g>

<g fill="#000000" fill-opacity="1" stroke="none" transform="matrix(1.19825,0,0,1.19825,409.791,105.371)"
>
<path vector-effect="none" fill-rule="nonzero" d="M59.899,79.814 C59.816,79.756 59.763,79.676 59.698,79.604 C59.665,79.568 59.622,79.547 59.592,79.506 C59.586,79.498 59.586,79.489 59.581,79.481 C59.511,79.38 59.47,79.269 59.432,79.155 C59.416,79.107 59.388,79.063 59.377,79.013 C59.356,78.916 59.365,78.818 59.367,78.718 C59.368,78.649 59.358,78.581 59.37,78.514 C59.384,78.437 59.422,78.367 59.451,78.293 C59.483,78.207 59.509,78.121 59.56,78.043 C59.568,78.031 59.568,78.016 59.577,78.004 C59.62,77.942 59.683,77.906 59.734,77.854 C59.785,77.802 59.819,77.74 59.88,77.696 L77.732,64.728 C78.219,64.374 78.362,63.715 78.055,63.197 C77.278,61.884 76.231,60.101 75.362,58.582 C74.994,57.94 74.142,57.789 73.588,58.28 C71.443,60.182 68.371,62.663 64.866,64.999 C56.692,70.44 52.356,72.82 50.499,73.753 C49.703,74.154 46.868,76.156 45.912,77.117 C45.759,77.271 45.657,77.458 45.606,77.669 L42.107,92.16 C41.93,92.894 42.486,93.601 43.242,93.601 L55.174,93.601 C55.44,93.601 55.697,93.51 55.905,93.344 L65.567,85.591 C66.175,85.103 66.143,84.169 65.504,83.723 L59.899,79.814"/>
</g>

<g fill="#000000" fill-opacity="1" stroke="#000000" stroke-opacity="1" stroke-width="1" stroke-linecap="square" stroke-linejoin="miter" stroke-miterlimit="2" transform="matrix(1.19825,0,0,1.19825,409.791,105.371)"
>
</g>

<g fill="#000000" fill-opacity="1" stroke="none" transform="matrix(1.19825,0,0,1.19825,409.791,105.371)"
>
<path vector-effect="none" fill-rule="nonzero" d="M24.401,70.415 C22.365,69.107 21.331,68.525 20.82,68.267 C19.173,70.473 15.55,80.862 18.035,93.6 L39.084,93.6 L41.89,81.981 L24.401,70.415"/>
</g>

<g fill="#000000" fill-opacity="1" stroke="#000000" stroke-opacity="1" stroke-width="1" stroke-linecap="square" stroke-linejoin="miter" stroke-miterlimit="2" transform="matrix(1.19825,0,0,1.19825,409.791,105.371)"
>
</g>

<g fill="#000000" fill-opacity="1" stroke="none" transform="matrix(1.19825,0,0,1.19825,409.791,105.371)"
>
<path vector-effect="none" fill-rule="nonzero" d="M62.895,78.733 L69.693,83.475 C70.028,83.71 70.234,84.088 70.248,84.498 C70.261,84.907 70.081,85.299 69.762,85.556 L59.738,93.6 L78.926,93.6 C81.108,80.806 77.604,71.258 76.019,69.317 L62.895,78.733"/>
</g>

<g fill="#000000" fill-opacity="1" stroke="#000000" stroke-opacity="1" stroke-width="1" stroke-linecap="square" stroke-linejoin="miter" stroke-miterlimit="2" transform="matrix(1.19825,0,0,1.19825,409.791,105.371)"
>
</g>

<g fill="#000000" fill-opacity="1" stroke="#000000" stroke-opacity="1" stroke-width="1" stroke-linecap="square" stroke-linejoin="miter" stroke-miterlimit="2" transform="matrix(1.19825,0,0,1.19825,409.791,105.371)"
>
</g>

<g fill="#000000" fill-opacity="1" stroke="#000000" stroke-opacity="1" stroke-width="1" stroke-linecap="square" stroke-linejoin="miter" stroke-miterlimit="2" transform="matrix(1.19825,0,0,1.19825,409.791,105.371)"
>
</g>

<g fill="#000000" fill-opacity="1" stroke="#000000" stroke-opacity="1" stroke-width="1" stroke-linecap="square" stroke-linejoin="miter" stroke-miterlimit="2" transform="matrix(0.528384,0,0,0.528384,287.197,106.568)"
>
</g>

<g fill="#000000" fill-opacity="1" stroke="#000000" stroke-opacity="1" stroke-width="1" stroke-linecap="square" stroke-linejoin="miter" stroke-miterlimit="2" transform="matrix(2.11072,0,0,2.11072,286.817,229.644)"
>
</g>

<g fill="#000000" fill-opacity="1" stroke="none" transform="matrix(2.11072,0,0,2.11072,286.817,229.644)"
>
<path vector-effect="none" fill-rule="nonzero" d="M4.84,21.14 C4.48,21.14 4.21333,21.1333 4.04,21.12 L3.18,24.02 C2.86,24.1 2.41333,24.14 1.84,24.14 C1.2,24.14 0.68,24.0667 0.28,23.92 L0.18,23.76 L4.58,10.34 C5.1,10.26 5.70667,10.22 6.4,10.22 C7.18667,10.22 7.81333,10.2667 8.28,10.36 L12.6,23.8 C12.1333,24.0533 11.6067,24.18 11.02,24.18 C10.3267,24.18 9.84,24.06 9.56,23.82 C9.28,23.58 9.04,23.12 8.84,22.44 L8.46,21.12 C8.28667,21.1333 8.02667,21.14 7.68,21.14 L4.84,21.14 M4.78,18.62 L5.58,18.6 L7.04,18.6 C7.10667,18.6 7.22333,18.6033 7.39,18.61 C7.55667,18.6167 7.68,18.62 7.76,18.62 L7.42,17.38 C7.1,16.26 6.73333,14.8867 6.32,13.26 L6.2,13.26 C6.09333,13.8333 5.77333,15.1067 5.24,17.08 L4.78,18.62 M13.96,23.5 L13.96,9.42 L14.1,9.28 L15.28,9.28 C15.8933,9.28 16.3333,9.42 16.6,9.7 C16.8667,9.98 17,10.4667 17,11.16 L17,14.5 C17.6933,14.0467 18.4667,13.82 19.32,13.82 C20.4933,13.82 21.3767,14.2933 21.97,15.24 C22.5633,16.1867 22.86,17.46 22.86,19.06 C22.86,19.82 22.74,20.5133 22.5,21.14 C22.26,21.7667 21.9267,22.3067 21.5,22.76 C21.0733,23.2133 20.5533,23.5633 19.94,23.81 C19.3267,24.0567 18.6533,24.18 17.92,24.18 C16.4,24.18 15.08,23.9533 13.96,23.5 L13.96,23.5 M18.38,16.32 C17.86,16.32 17.4,16.54 17,16.98 L17,21.86 C17.1333,21.8867 17.2767,21.9067 17.43,21.92 C17.5833,21.9333 17.7467,21.94 17.92,21.94 C19.08,21.94 19.66,20.9333 19.66,18.92 C19.66,17.2 19.2333,16.3333 18.38,16.32 M24.6,20.62 L24.6,16.52 C24.6,15.6533 24.44,14.9867 24.12,14.52 C24.6133,14.08 25.2133,13.86 25.92,13.86 C26.6267,13.86 27.1067,14.02 27.36,14.34 C27.6133,14.66 27.74,15.1467 27.74,15.8 L27.74,20.04 C27.74,20.5067 27.7933,20.8467 27.9,21.06 C28.0067,21.2733 28.2867,21.38 28.74,21.38 C29.18,21.38 29.6267,21.1533 30.08,20.7 L30.08,14.02 C30.52,13.94 31.0333,13.9 31.62,13.9 C32.2067,13.9 32.7333,13.94 33.2,14.02 L33.2,21.14 C33.2,21.86 33.3867,22.3467 33.76,22.6 C33.6933,22.8667 33.5667,23.1567 33.38,23.47 C33.1933,23.7833 33,24.0133 32.8,24.16 C31.7067,24.12 30.92,23.6533 30.44,22.76 C29.3867,23.7067 28.3933,24.18 27.46,24.18 C26.5267,24.18 25.8167,23.8567 25.33,23.21 C24.8433,22.5633 24.6,21.7 24.6,20.62 L24.6,20.62 M34.84,23.32 C34.8533,22.9733 34.9433,22.5933 35.11,22.18 C35.2767,21.7667 35.4733,21.44 35.7,21.2 C36.7667,21.76 37.6933,22.04 38.48,22.04 C38.8533,22.04 39.14,21.9767 39.34,21.85 C39.54,21.7233 39.64,21.5533 39.64,21.34 C39.64,20.94 39.3333,20.64 38.72,20.44 L37.62,20.02 C35.9533,19.4067 35.12,18.4067 35.12,17.02 C35.12,16.0067 35.47,15.2033 36.17,14.61 C36.87,14.0167 37.8133,13.72 39,13.72 C39.5867,13.72 40.2333,13.8033 40.94,13.97 C41.6467,14.1367 42.2267,14.3333 42.68,14.56 C42.7067,14.9333 42.6333,15.3433 42.46,15.79 C42.2867,16.2367 42.0733,16.5533 41.82,16.74 C40.7,16.2333 39.7667,15.98 39.02,15.98 C38.7533,15.98 38.55,16.04 38.41,16.16 C38.27,16.28 38.2,16.4333 38.2,16.62 C38.2,16.94 38.4533,17.1933 38.96,17.38 L40.2,17.82 C41.9733,18.4467 42.86,19.52 42.86,21.04 C42.86,22.04 42.4933,22.8333 41.76,23.42 C41.0267,24.0067 39.98,24.3 38.62,24.3 C37.26,24.3 36,23.9733 34.84,23.32 L34.84,23.32 M52.28,20.02 L47.06,20.02 C47.0867,20.62 47.24,21.0867 47.52,21.42 C47.8,21.7533 48.26,21.92 48.9,21.92 C49.22,21.92 49.59,21.8733 50.01,21.78 C50.43,21.6867 50.9133,21.5333 51.46,21.32 C51.9,21.7733 52.1733,22.3867 52.28,23.16 C51.2133,23.92 49.9067,24.3 48.36,24.3 C47.52,24.3 46.8167,24.1667 46.25,23.9 C45.6833,23.6333 45.2233,23.26 44.87,22.78 C44.5167,22.3 44.2667,21.7333 44.12,21.08 C43.9733,20.4267 43.9,19.7133 43.9,18.94 C43.9,18.1933 43.99,17.5033 44.17,16.87 C44.35,16.2367 44.6233,15.6867 44.99,15.22 C45.3567,14.7533 45.8233,14.3867 46.39,14.12 C46.9567,13.8533 47.62,13.72 48.38,13.72 C49.02,13.72 49.5967,13.8267 50.11,14.04 C50.6233,14.2533 51.06,14.5467 51.42,14.92 C51.78,15.2933 52.0567,15.74 52.25,16.26 C52.4433,16.78 52.54,17.3467 52.54,17.96 C52.54,18.7733 52.4533,19.46 52.28,20.02 L52.28,20.02 M47.04,17.86 L49.68,17.86 L49.68,17.64 C49.68,17.1467 49.57,16.74 49.35,16.42 C49.13,16.1 48.8,15.94 48.36,15.94 C47.9333,15.94 47.6167,16.09 47.41,16.39 C47.2033,16.69 47.08,17.18 47.04,17.86 L47.04,17.86 M54.8,24 L54.8,10.34 C55.2133,10.26 55.7467,10.22 56.4,10.22 C57.0533,10.22 57.5933,10.26 58.02,10.34 L58.02,24 C57.5933,24.08 57.0533,24.12 56.4,24.12 C55.7467,24.12 55.2133,24.08 54.8,24 M65.88,19.72 L64.3,19.72 L64.3,24 C63.8733,24.08 63.34,24.12 62.7,24.12 C62.0467,24.12 61.5133,24.08 61.1,24 L61.1,10.44 L61.24,10.3 C62.4,10.2733 63.3633,10.2533 64.13,10.24 C64.8967,10.2267 65.48,10.22 65.88,10.22 C66.6133,10.22 67.2833,10.32 67.89,10.52 C68.4967,10.72 69.0133,11.02 69.44,11.42 C69.8667,11.82 70.1967,12.3167 70.43,12.91 C70.6633,13.5033 70.78,14.1867 70.78,14.96 C70.78,15.7333 70.66,16.4167 70.42,17.01 C70.18,17.6033 69.8467,18.1 69.42,18.5 C68.9933,18.9 68.4767,19.2033 67.87,19.41 C67.2633,19.6167 66.6,19.72 65.88,19.72 L65.88,19.72 M64.3,12.66 L64.3,17.32 C64.6733,17.3067 64.97,17.2967 65.19,17.29 C65.41,17.2833 65.5533,17.28 65.62,17.28 C65.98,17.28 66.28,17.2167 66.52,17.09 C66.76,16.9633 66.9533,16.7967 67.1,16.59 C67.2467,16.3833 67.3533,16.14 67.42,15.86 C67.4867,15.58 67.52,15.2867 67.52,14.98 C67.52,14.6867 67.4867,14.4 67.42,14.12 C67.3533,13.84 67.25,13.5933 67.11,13.38 C66.97,13.1667 66.7867,12.9967 66.56,12.87 C66.3333,12.7433 66.0667,12.68 65.76,12.68 L64.94,12.68 C64.94,12.68 64.7267,12.6733 64.3,12.66 L64.3,12.66 M81.72,23.12 C81.2933,23.4667 80.7333,23.72 80.04,23.88 C79.3467,24.04 78.58,24.12 77.74,24.12 C77.3267,24.12 76.73,24.1133 75.95,24.1 C75.17,24.0867 74.1933,24.0667 73.02,24.04 L72.88,23.9 L72.88,10.44 L73.02,10.3 C73.7933,10.2733 74.5967,10.2533 75.43,10.24 C76.2633,10.2267 77.14,10.22 78.06,10.22 C79.1933,10.22 80.14,10.4 80.9,10.76 C81.66,11.12 82.2667,11.6133 82.72,12.24 C83.1733,12.8667 83.4933,13.6033 83.68,14.45 C83.8667,15.2967 83.96,16.2067 83.96,17.18 C83.96,18.5133 83.8067,19.6667 83.5,20.64 C83.1933,21.6133 82.6,22.44 81.72,23.12 L81.72,23.12 M78.04,21.62 C79.8,21.62 80.68,20.14 80.68,17.18 C80.68,14.2067 79.8,12.72 78.04,12.72 L76.91,12.72 C76.91,12.72 76.6267,12.7133 76.06,12.7 L76.06,21.64 C76.3,21.6267 76.5833,21.62 76.91,21.62 L78.04,21.62 L78.04,21.62 M86.36,10.3 C87.44,10.2733 88.3633,10.2533 89.13,10.24 C89.8967,10.2267 90.5133,10.22 90.98,10.22 C92.4333,10.22 93.5767,10.5233 94.41,11.13 C95.2433,11.7367 95.66,12.6467 95.66,13.86 C95.66,14.4467 95.4933,14.9933 95.16,15.5 C94.8267,16.0067 94.4,16.3733 93.88,16.6 C94.2133,16.7067 94.53,16.8767 94.83,17.11 C95.13,17.3433 95.3867,17.6167 95.6,17.93 C95.8133,18.2433 95.9833,18.5833 96.11,18.95 C96.2367,19.3167 96.3,19.6933 96.3,20.08 C96.3,21.4533 95.8633,22.47 94.99,23.13 C94.1167,23.79 92.88,24.12 91.28,24.12 C90.7867,24.12 90.1333,24.1133 89.32,24.1 C88.5067,24.0867 87.52,24.0667 86.36,24.04 L86.22,23.9 L86.22,10.44 L86.36,10.3 M91.04,17.98 L89.38,17.98 L89.38,21.88 C89.7267,21.8667 90.1167,21.8667 90.55,21.88 C90.9833,21.8933 91.3867,21.86 91.76,21.78 C92.1333,21.7 92.4467,21.5067 92.7,21.2 C92.9533,20.8933 93.08,20.4667 93.08,19.92 C93.08,19.4 92.9167,18.9467 92.59,18.56 C92.2633,18.1733 91.7467,17.98 91.04,17.98 L91.04,17.98 M89.38,12.48 L89.38,15.7 L90.8,15.7 C91.44,15.7 91.89,15.5433 92.15,15.23 C92.41,14.9167 92.54,14.5333 92.54,14.08 C92.54,13.6267 92.4067,13.25 92.14,12.95 C91.8733,12.65 91.4267,12.5 90.8,12.5 L89.99,12.5 C89.99,12.5 89.7867,12.4933 89.38,12.48 M101.7,22.82 C101.74,22.38 101.877,21.94 102.11,21.5 C102.343,21.06 102.62,20.7 102.94,20.42 C104.367,21.2867 105.72,21.72 107,21.72 C107.56,21.72 107.97,21.5933 108.23,21.34 C108.49,21.0867 108.62,20.7733 108.62,20.4 C108.62,19.7733 108.2,19.28 107.36,18.92 L105,17.92 C104.08,17.5067 103.373,17.01 102.88,16.43 C102.387,15.85 102.14,15.1133 102.14,14.22 C102.14,13.6067 102.263,13.0467 102.51,12.54 C102.757,12.0333 103.103,11.5933 103.55,11.22 C103.997,10.8467 104.527,10.5567 105.14,10.35 C105.753,10.1433 106.433,10.04 107.18,10.04 C108.673,10.04 110.18,10.42 111.7,11.18 C111.633,12.2067 111.273,13.0067 110.62,13.58 C109.26,12.9267 108.06,12.6 107.02,12.6 C106.487,12.6 106.087,12.72 105.82,12.96 C105.553,13.2 105.42,13.4733 105.42,13.78 C105.42,14.3 105.813,14.72 106.6,15.04 L109,16.06 C110.013,16.4867 110.77,17.0333 111.27,17.7 C111.77,18.3667 112.02,19.14 112.02,20.02 C112.02,20.6467 111.907,21.22 111.68,21.74 C111.453,22.26 111.117,22.71 110.67,23.09 C110.223,23.47 109.667,23.7667 109,23.98 C108.333,24.1933 107.553,24.3 106.66,24.3 C104.927,24.3 103.273,23.8067 101.7,22.82 L101.7,22.82 M118.72,18.44 L118.72,18.18 C118.72,17.4333 118.64,16.89 118.48,16.55 C118.32,16.21 118.02,16.04 117.58,16.04 C117.113,16.04 116.787,16.27 116.6,16.73 C116.413,17.19 116.32,17.9533 116.32,19.02 C116.32,19.5533 116.357,20 116.43,20.36 C116.503,20.72 116.61,21.01 116.75,21.23 C116.89,21.45 117.067,21.61 117.28,21.71 C117.493,21.81 117.747,21.86 118.04,21.86 C118.347,21.86 118.687,21.7933 119.06,21.66 C119.433,21.5267 119.833,21.3133 120.26,21.02 C120.38,21.0867 120.503,21.1833 120.63,21.31 C120.757,21.4367 120.873,21.58 120.98,21.74 C121.087,21.9 121.18,22.07 121.26,22.25 C121.34,22.43 121.4,22.6 121.44,22.76 C121,23.2267 120.427,23.6 119.72,23.88 C119.013,24.16 118.293,24.3 117.56,24.3 C116.133,24.3 115.04,23.8333 114.28,22.9 C113.52,21.9667 113.14,20.64 113.14,18.92 C113.14,18.04 113.263,17.2733 113.51,16.62 C113.757,15.9667 114.083,15.4267 114.49,15 C114.897,14.5733 115.363,14.2533 115.89,14.04 C116.417,13.8267 116.967,13.72 117.54,13.72 C118.127,13.72 118.663,13.8 119.15,13.96 C119.637,14.12 120.057,14.3467 120.41,14.64 C120.763,14.9333 121.037,15.2833 121.23,15.69 C121.423,16.0967 121.52,16.5467 121.52,17.04 C121.52,17.6 121.357,17.9933 121.03,18.22 C120.703,18.4467 120.3,18.56 119.82,18.56 C119.42,18.56 119.053,18.52 118.72,18.44 L118.72,18.44 M131.72,22.56 C131.653,22.84 131.527,23.14 131.34,23.46 C131.153,23.78 130.96,24.0133 130.76,24.16 C129.827,24.1333 129.107,23.78 128.6,23.1 C127.733,23.9 126.793,24.3 125.78,24.3 C125.26,24.3 124.807,24.2167 124.42,24.05 C124.033,23.8833 123.707,23.66 123.44,23.38 C123.173,23.1 122.973,22.7767 122.84,22.41 C122.707,22.0433 122.64,21.66 122.64,21.26 C122.64,20.6867 122.743,20.1833 122.95,19.75 C123.157,19.3167 123.44,18.9567 123.8,18.67 C124.16,18.3833 124.58,18.1667 125.06,18.02 C125.54,17.8733 126.053,17.8 126.6,17.8 C126.907,17.8 127.177,17.8033 127.41,17.81 C127.643,17.8167 127.847,17.8267 128.02,17.84 L128.02,17.46 C128.02,16.62 127.587,16.2 126.72,16.2 C126.16,16.2 125.18,16.4133 123.78,16.84 C123.38,16.3733 123.127,15.6467 123.02,14.66 C123.34,14.54 123.697,14.4267 124.09,14.32 C124.483,14.2133 124.887,14.12 125.3,14.04 C125.713,13.96 126.12,13.8967 126.52,13.85 C126.92,13.8033 127.28,13.78 127.6,13.78 C128.067,13.78 128.517,13.8467 128.95,13.98 C129.383,14.1133 129.763,14.3167 130.09,14.59 C130.417,14.8633 130.677,15.2167 130.87,15.65 C131.063,16.0833 131.16,16.6 131.16,17.2 L131.16,21.26 C131.16,21.8733 131.347,22.3067 131.72,22.56 L131.72,22.56 M125.68,21.06 C125.68,21.6867 126.04,22 126.76,22 C127.133,22 127.553,21.8067 128.02,21.42 L128.02,19.82 C127.753,19.8067 127.53,19.7967 127.35,19.79 C127.17,19.7833 127.033,19.78 126.94,19.78 C126.1,19.78 125.68,20.2067 125.68,21.06 M142.1,17.4 L142.1,21.5 C142.1,22.38 142.26,23.04 142.58,23.48 C142.073,23.9333 141.467,24.16 140.76,24.16 C140.067,24.16 139.593,24 139.34,23.68 C139.087,23.36 138.96,22.8733 138.96,22.22 L138.96,17.96 C138.96,17.5067 138.9,17.1733 138.78,16.96 C138.66,16.7467 138.427,16.64 138.08,16.64 C137.88,16.64 137.653,16.6933 137.4,16.8 C137.147,16.9067 136.887,17.08 136.62,17.32 L136.62,24 C136.393,24.04 136.147,24.07 135.88,24.09 C135.613,24.11 135.34,24.12 135.06,24.12 C134.78,24.12 134.507,24.11 134.24,24.09 C133.973,24.07 133.727,24.04 133.5,24 L133.5,14.02 L133.64,13.88 L134.82,13.88 C135.633,13.88 136.18,14.28 136.46,15.08 C137.393,14.2533 138.32,13.84 139.24,13.84 C140.173,13.84 140.883,14.1633 141.37,14.81 C141.857,15.4567 142.1,16.32 142.1,17.4 L142.1,17.4 M153.04,17.4 L153.04,21.5 C153.04,22.38 153.2,23.04 153.52,23.48 C153.013,23.9333 152.407,24.16 151.7,24.16 C151.007,24.16 150.533,24 150.28,23.68 C150.027,23.36 149.9,22.8733 149.9,22.22 L149.9,17.96 C149.9,17.5067 149.84,17.1733 149.72,16.96 C149.6,16.7467 149.367,16.64 149.02,16.64 C148.82,16.64 148.593,16.6933 148.34,16.8 C148.087,16.9067 147.827,17.08 147.56,17.32 L147.56,24 C147.333,24.04 147.087,24.07 146.82,24.09 C146.553,24.11 146.28,24.12 146,24.12 C145.72,24.12 145.447,24.11 145.18,24.09 C144.913,24.07 144.667,24.04 144.44,24 L144.44,14.02 L144.58,13.88 L145.76,13.88 C146.573,13.88 147.12,14.28 147.4,15.08 C148.333,14.2533 149.26,13.84 150.18,13.84 C151.113,13.84 151.823,14.1633 152.31,14.81 C152.797,15.4567 153.04,16.32 153.04,17.4 L153.04,17.4 M163.16,20.02 L157.94,20.02 C157.967,20.62 158.12,21.0867 158.4,21.42 C158.68,21.7533 159.14,21.92 159.78,21.92 C160.1,21.92 160.47,21.8733 160.89,21.78 C161.31,21.6867 161.793,21.5333 162.34,21.32 C162.78,21.7733 163.053,22.3867 163.16,23.16 C162.093,23.92 160.787,24.3 159.24,24.3 C158.4,24.3 157.697,24.1667 157.13,23.9 C156.563,23.6333 156.103,23.26 155.75,22.78 C155.397,22.3 155.147,21.7333 155,21.08 C154.853,20.4267 154.78,19.7133 154.78,18.94 C154.78,18.1933 154.87,17.5033 155.05,16.87 C155.23,16.2367 155.503,15.6867 155.87,15.22 C156.237,14.7533 156.703,14.3867 157.27,14.12 C157.837,13.8533 158.5,13.72 159.26,13.72 C159.9,13.72 160.477,13.8267 160.99,14.04 C161.503,14.2533 161.94,14.5467 162.3,14.92 C162.66,15.2933 162.937,15.74 163.13,16.26 C163.323,16.78 163.42,17.3467 163.42,17.96 C163.42,18.7733 163.333,19.46 163.16,20.02 L163.16,20.02 M157.92,17.86 L160.56,17.86 L160.56,17.64 C160.56,17.1467 160.45,16.74 160.23,16.42 C160.01,16.1 159.68,15.94 159.24,15.94 C158.813,15.94 158.497,16.09 158.29,16.39 C158.083,16.69 157.96,17.18 157.92,17.86 L157.92,17.86 M164.72,15.46 C164.787,15.1933 164.913,14.8967 165.1,14.57 C165.287,14.2433 165.473,14.0067 165.66,13.86 C166.887,13.9533 167.74,14.56 168.22,15.68 C168.727,14.48 169.56,13.88 170.72,13.88 C171.067,13.88 171.507,13.9333 172.04,14.04 C172.04,14.4533 171.97,14.9433 171.83,15.51 C171.69,16.0767 171.5,16.56 171.26,16.96 C171.033,16.88 170.693,16.8133 170.24,16.76 C169.573,16.76 169.027,17.1 168.6,17.78 L168.6,24 C168.16,24.08 167.643,24.12 167.05,24.12 C166.457,24.12 165.933,24.08 165.48,24 L165.48,17.54 C165.48,16.54 165.227,15.8467 164.72,15.46 L164.72,15.46"/>
</g>

<g fill="#000000" fill-opacity="1" stroke="#000000" stroke-opacity="1" stroke-width="1" stroke-linecap="square" stroke-linejoin="miter" stroke-miterlimit="2" transform="matrix(2.11072,0,0,2.11072,286.817,229.644)"
>
</g>

<g fill="#000000" fill-opacity="1" stroke="#000000" stroke-opacity="1" stroke-width="1" stroke-linecap="square" stroke-linejoin="miter" stroke-miterlimit="2" transform="matrix(0.528384,0,0,0.528384,287.197,106.568)"
>
</g>

<g fill="#000000" fill-opacity="1" stroke="#000000" stroke-opacity="1" stroke-width="1" stroke-linecap="square" stroke-linejoin="miter" stroke-miterlimit="2" transform="matrix(1.24841,0,0,1.24841,333.963,287.68)"
>
</g>

<g fill="#000000" fill-opacity="1" stroke="none" transform="matrix(1.24841,0,0,1.24841,333.963,287.68)"
>
<path vector-effect="none" fill-rule="nonzero" d="M5.9158,15.2 L11.2,9.4105 L11.2,23.9995 L10.0421,23.9995 L10.0421,12.3995 L5.9158,16.9048 L1.7895,12.3995 L1.7895,23.9995 L0.631601,23.9995 L0.631601,9.4105 L5.9158,15.2 M19.979,22.8421 C19.0667,23.7825 17.972,24.2526 16.6948,24.2526 C15.4597,24.2526 14.393,23.8035 13.4948,22.9053 C12.5965,22.007 12.1474,20.9403 12.1474,19.7053 C12.1474,18.4421 12.5965,17.3684 13.4947,16.4842 C14.393,15.6 15.4597,15.1579 16.6947,15.1579 C17.9719,15.1579 19.0667,15.6281 19.9789,16.5684 L21.2421,15.3895 L21.2421,24 L19.979,22.8421 M16.6948,16.3158 C15.7404,16.3158 14.9369,16.6421 14.2843,17.2947 C13.6316,17.9474 13.3053,18.7509 13.3053,19.7052 C13.3053,20.6596 13.6316,21.4631 14.2843,22.1157 C14.9369,22.7684 15.7404,23.0947 16.6948,23.0947 C17.6351,23.0947 18.4351,22.7649 19.0948,22.1052 C19.7544,21.4456 20.0842,20.6456 20.0842,19.7052 C20.0842,18.7649 19.7544,17.9649 19.0948,17.3052 C18.4351,16.6456 17.6351,16.3158 16.6948,16.3158 L16.6948,16.3158 M22.5053,24 L22.5053,9.684 L23.6632,9.684 L23.6632,24 L22.5053,24 M24.9263,15.3895 L26.0842,15.3895 L26.0842,24 L24.9263,24 L24.9263,15.3895 M24.9263,12.021 L26.0842,12.021 L26.0842,13.2842 L24.9263,13.2842 L24.9263,12.021 M35.0737,16.8 L34.1684,17.5158 C33.4807,16.7158 32.6176,16.3158 31.579,16.3158 C30.6246,16.3158 29.8211,16.6421 29.1684,17.2947 C28.5158,17.9474 28.1895,18.7509 28.1895,19.7052 C28.1895,20.6596 28.5158,21.4631 29.1684,22.1157 C29.8211,22.7684 30.6246,23.0947 31.5789,23.0947 C32.6035,23.0947 33.4456,22.7157 34.1052,21.9578 L35.0316,22.6736 C34.5965,23.1789 34.0842,23.5684 33.4947,23.8421 C32.9053,24.1157 32.2666,24.2526 31.5789,24.2526 C30.3438,24.2526 29.2772,23.8035 28.3789,22.9052 C27.4807,22.007 27.0315,20.9403 27.0315,19.7052 C27.0315,18.4421 27.4806,17.3684 28.3789,16.4842 C29.2771,15.6 30.3438,15.1579 31.5789,15.1579 C32.2947,15.1579 32.9473,15.2982 33.5368,15.5789 C34.1263,15.8596 34.6385,16.2667 35.0736,16.8 L35.0737,16.8 M36.0211,15.3895 L37.179,15.3895 L37.179,24 L36.0211,24 L36.0211,15.3895 M36.0211,12.021 L37.179,12.021 L37.179,13.2842 L36.0211,13.2842 L36.0211,12.021 M42.6737,15.1579 C43.9369,15.1579 45.0106,15.6 45.8948,16.4842 C46.779,17.3684 47.2211,18.4421 47.2211,19.7053 C47.2211,20.9404 46.779,22.0071 45.8948,22.9053 C45.0106,23.8036 43.9369,24.2527 42.6737,24.2527 C41.4386,24.2527 40.3719,23.8036 39.4737,22.9053 C38.5754,22.0071 38.1263,20.9404 38.1263,19.7053 C38.1263,18.4422 38.5754,17.3685 39.4736,16.4843 C40.3719,15.6001 41.4385,15.158 42.6736,15.158 L42.6737,15.1579 M42.6737,16.3158 C41.7193,16.3158 40.9158,16.6421 40.2632,17.2947 C39.6106,17.9474 39.2843,18.7509 39.2842,19.7052 C39.2842,20.6596 39.6106,21.4631 40.2632,22.1157 C40.9158,22.7684 41.7193,23.0947 42.6737,23.0947 C43.6141,23.0947 44.414,22.7649 45.0737,22.1052 C45.7333,21.4456 46.0632,20.6456 46.0632,19.7052 C46.0632,18.7649 45.7333,17.9649 45.0737,17.3052 C44.4141,16.6456 43.6141,16.3158 42.6737,16.3158 L42.6737,16.3158 M55.0315,15.3895 L55.0315,24 L54.0421,23.2 C53.3824,23.8877 52.5684,24.2316 51.6,24.2316 C50.6316,24.2316 49.8175,23.9018 49.1579,23.2421 C48.4982,22.5825 48.1684,21.7684 48.1684,20.8 L48.1684,15.3895 L49.3263,15.3895 L49.3263,20.8 C49.3263,21.4316 49.5544,21.9684 50.0105,22.4105 C50.4667,22.8526 50.9965,23.0737 51.6,23.0737 C52.2597,23.0737 52.8035,22.8456 53.2316,22.3895 C53.6597,21.9333 53.8737,21.4035 53.8737,20.8 L53.8737,15.3895 L55.0316,15.3895 L55.0315,15.3895 M56.9895,22.1684 C57.2702,22.7298 57.7333,23.0105 58.3789,23.0105 C58.814,23.0105 59.1789,22.8631 59.4737,22.5684 C59.7684,22.2737 59.9158,21.9088 59.9158,21.4737 C59.9158,21.1228 59.814,20.8105 59.6105,20.5369 C59.407,20.2632 59.1509,20.0842 58.8421,20 L57.8316,19.7053 C57.3263,19.5509 56.9193,19.2737 56.6105,18.8737 C56.3018,18.4737 56.1474,18.0211 56.1474,17.5158 C56.1474,16.8842 56.3684,16.3474 56.8105,15.9053 C57.2526,15.4632 57.7895,15.2421 58.421,15.2421 C58.8702,15.2421 59.2877,15.3684 59.6737,15.6211 C60.0596,15.8737 60.3368,16.2105 60.5052,16.6316 L59.4526,17.0737 C59.2842,16.6245 58.9404,16.4 58.4211,16.4 C58.0983,16.4 57.8316,16.5123 57.6211,16.7368 C57.4105,16.9614 57.3053,17.221 57.3053,17.5158 C57.3053,18.0772 57.579,18.4351 58.1263,18.5895 L59.1368,18.8842 C59.7123,19.0386 60.1789,19.3544 60.5368,19.8316 C60.8947,20.3088 61.0737,20.8561 61.0737,21.4737 C61.0737,21.9789 60.9544,22.4351 60.7158,22.8421 C60.4772,23.2491 60.1544,23.5719 59.7474,23.8105 C59.3403,24.0491 58.8842,24.1684 58.379,24.1684 C57.8737,24.1684 57.4105,24.0386 56.9895,23.7789 C56.5684,23.5193 56.2315,23.1649 55.979,22.7157 L56.9895,22.1684 M70.0211,24 L70.0211,9.684 L71.179,9.684 L71.179,24 L70.0211,24 M75.0105,18.7579 L76.7158,18.7579 C77.8948,18.7579 78.8492,18.3649 79.579,17.579 C80.3088,16.793 80.6737,15.8667 80.6737,14.8001 C80.6737,14.0141 80.4842,13.3194 80.1053,12.7158 C79.7263,12.1123 79.2351,11.6492 78.6316,11.3263 C78.028,11.0035 77.3895,10.8421 76.7158,10.8421 L75.0105,10.8421 L75.0105,18.7579 L75.0105,18.7579 M76.7158,9.684 C77.6281,9.684 78.4807,9.91207 79.2737,10.3682 C80.0667,10.8244 80.6913,11.4489 81.1474,12.2419 C81.6036,13.0349 81.8316,13.8875 81.8316,14.7998 C81.8316,16.2174 81.3334,17.4244 80.3369,18.4209 C79.3404,19.4174 78.1334,19.9156 76.7158,19.9156 L75.0105,19.9156 L75.0105,23.9998 L73.8526,23.9998 L73.8526,10.8418 L72.1263,10.8418 L72.821,9.68386 L76.7157,9.68386 L76.7158,9.684 M93.9369,22.8421 C95.0316,22.8421 96.0386,22.5754 96.9579,22.0421 C97.8772,21.5088 98.6035,20.7789 99.1368,19.8526 C99.6701,18.9263 99.9368,17.9228 99.9368,16.8421 C99.9368,16.0281 99.7754,15.2456 99.4526,14.4947 C99.1298,13.7439 98.7087,13.1088 98.1894,12.5894 C97.6701,12.0701 97.035,11.649 96.2841,11.3262 C95.5332,11.0034 94.7508,10.842 93.9367,10.842 L93.3473,10.842 L93.3473,22.842 L93.9367,22.842 L93.9369,22.8421 M91.1579,9.684 L93.9368,9.684 C94.9473,9.684 95.8841,9.86997 96.7473,10.2419 C97.6104,10.6138 98.3649,11.1226 99.0105,11.7682 C99.6561,12.4138 100.165,13.1682 100.537,14.0314 C100.909,14.8946 101.095,15.8314 101.095,16.8419 C101.095,18.1331 100.775,19.3296 100.137,20.4314 C99.4982,21.5331 98.628,22.4033 97.5263,23.0419 C96.4246,23.6804 95.2281,23.9997 93.9368,23.9998 L92.1894,23.9998 L92.1894,10.8418 L90.4631,10.8418 L91.1579,9.684 M109.263,21.2842 L110.274,21.8526 C109.895,22.5684 109.347,23.1474 108.632,23.5895 C107.916,24.0316 107.13,24.2526 106.274,24.2526 C105.039,24.2526 103.972,23.8035 103.074,22.9053 C102.175,22.007 101.726,20.9403 101.726,19.7053 C101.726,18.4421 102.175,17.3684 103.074,16.4842 C103.972,15.6 105.038,15.1579 106.274,15.1579 C107.06,15.1579 107.8,15.3544 108.495,15.7474 C109.189,16.1404 109.726,16.6386 110.105,17.2421 L104.231,22.421 C104.821,22.8701 105.502,23.0947 106.274,23.0947 C106.919,23.0947 107.505,22.9333 108.031,22.6104 C108.558,22.2876 108.968,21.8455 109.263,21.2841 L109.263,21.2842 M103.453,21.6 L108.484,17.1368 C107.853,16.5894 107.116,16.3157 106.274,16.3157 C105.319,16.3157 104.516,16.6421 103.863,17.2947 C103.211,17.9473 102.884,18.7508 102.884,19.7052 C102.884,20.3929 103.074,21.0245 103.453,21.5999 L103.453,21.6 M112.484,16.5474 L110.926,16.5474 L110.926,15.3895 L112.484,15.3895 L112.484,12.9684 L113.642,12.4 L113.642,15.3895 L115.179,15.3895 L115.179,16.5474 L113.642,16.5474 L113.642,24 L112.484,24 L112.484,16.5474 L112.484,16.5474 M123.347,21.2842 L124.358,21.8526 C123.979,22.5684 123.432,23.1474 122.716,23.5895 C122,24.0316 121.214,24.2526 120.358,24.2526 C119.123,24.2526 118.056,23.8035 117.158,22.9053 C116.26,22.007 115.81,20.9403 115.81,19.7053 C115.81,18.4421 116.26,17.3684 117.158,16.4842 C118.056,15.6 119.123,15.1579 120.358,15.1579 C121.144,15.1579 121.884,15.3544 122.579,15.7474 C123.274,16.1404 123.81,16.6386 124.189,17.2421 L118.316,22.421 C118.905,22.8701 119.586,23.0947 120.358,23.0947 C121.003,23.0947 121.589,22.9333 122.116,22.6104 C122.642,22.2876 123.052,21.8455 123.347,21.2841 L123.347,21.2842 M117.537,21.6 L122.568,17.1368 C121.937,16.5894 121.2,16.3157 120.358,16.3157 C119.404,16.3157 118.6,16.6421 117.947,17.2947 C117.295,17.9473 116.968,18.7508 116.968,19.7052 C116.968,20.3929 117.158,21.0245 117.537,21.5999 L117.537,21.6 M133.053,16.8 L132.147,17.5158 C131.46,16.7158 130.597,16.3158 129.558,16.3158 C128.604,16.3158 127.8,16.6421 127.147,17.2947 C126.495,17.9474 126.168,18.7509 126.168,19.7052 C126.168,20.6596 126.495,21.4631 127.147,22.1157 C127.8,22.7684 128.604,23.0947 129.558,23.0947 C130.582,23.0947 131.425,22.7157 132.084,21.9578 L133.011,22.6736 C132.575,23.1789 132.063,23.5684 131.474,23.8421 C130.884,24.1157 130.246,24.2526 129.558,24.2526 C128.323,24.2526 127.256,23.8035 126.358,22.9052 C125.46,22.007 125.011,20.9403 125.01,19.7052 C125.01,18.4421 125.46,17.3684 126.358,16.4842 C127.256,15.6 128.323,15.1579 129.558,15.1579 C130.274,15.1579 130.926,15.2982 131.516,15.5789 C132.105,15.8596 132.618,16.2667 133.053,16.8 L133.053,16.8 M135.242,16.5474 L133.684,16.5474 L133.684,15.3895 L135.242,15.3895 L135.242,12.9684 L136.4,12.4 L136.4,15.3895 L137.937,15.3895 L137.937,16.5474 L136.4,16.5474 L136.4,24 L135.242,24 L135.242,16.5474 L135.242,16.5474 M154.674,22 L150.758,15.7263 C149.902,16.0631 149.235,16.5649 148.758,17.2316 C148.281,17.8982 148.042,18.6105 148.042,19.3684 C148.042,20.4491 148.414,21.3438 149.158,22.0526 C149.902,22.7613 150.779,23.1157 151.79,23.1158 C152.8,23.1158 153.761,22.7439 154.674,22 L154.674,22 M155.305,22.9684 C154.253,23.8386 153.081,24.2737 151.789,24.2737 C150.877,24.2737 150.053,24.0526 149.316,23.6105 C148.579,23.1684 147.989,22.5789 147.547,21.8421 C147.105,21.1053 146.884,20.2807 146.884,19.3684 C146.884,18.3579 147.175,17.4316 147.758,16.5895 C148.34,15.7474 149.137,15.1298 150.147,14.7369 L149.642,13.9369 C149.375,13.5298 149.242,13.0807 149.242,12.5895 C149.242,11.9158 149.488,11.3263 149.979,10.8211 C150.47,10.3158 151.067,10.0632 151.768,10.0632 C152.47,10.0632 153.067,10.3088 153.558,10.8 C154.049,11.2912 154.295,11.8877 154.295,12.5895 C154.295,13.1229 154.154,13.5965 153.874,14.0106 C153.593,14.4246 153.207,14.7299 152.716,14.9264 L151.853,15.2843 L155.516,21.1369 C155.923,20.6176 156.239,20.0912 156.463,19.5579 L157.179,20.5053 C156.926,21.1088 156.583,21.6632 156.147,22.1684 L157.305,24 L155.937,24 L155.305,22.9684 M151.242,14.2737 L152.295,13.8526 C152.856,13.6 153.137,13.179 153.137,12.5895 C153.137,12.2246 153.011,11.9053 152.758,11.6316 C152.505,11.3579 152.175,11.2211 151.768,11.2211 C151.418,11.2211 151.102,11.3474 150.821,11.6 C150.54,11.8526 150.4,12.1825 150.4,12.5895 C150.4,12.8562 150.47,13.0877 150.611,13.2842 L151.242,14.2737 M169.137,18.7579 L170.505,18.7579 C171.684,18.7579 172.639,18.3649 173.368,17.579 C174.098,16.793 174.463,15.8667 174.463,14.8001 C174.463,14.0141 174.274,13.3194 173.895,12.7158 C173.516,12.1123 173.025,11.6492 172.421,11.3263 C171.817,11.0035 171.179,10.8421 170.505,10.8421 L169.137,10.8421 L169.137,18.7579 L169.137,18.7579 M170.505,9.684 C171.418,9.684 172.27,9.91207 173.063,10.3682 C173.856,10.8244 174.481,11.4489 174.937,12.2419 C175.393,13.0349 175.621,13.8875 175.621,14.7998 C175.621,15.5717 175.446,16.3156 175.095,17.0314 C174.744,17.7472 174.26,18.3437 173.642,18.8209 C173.025,19.2981 172.351,19.6209 171.621,19.7893 L175.2,23.9998 L173.663,23.9998 L170.211,19.9156 L169.137,19.9156 L169.137,23.9998 L167.979,23.9998 L167.979,10.8418 L166.253,10.8418 L166.947,9.68391 L170.505,9.68391 L170.505,9.684 M183.789,21.2842 L184.8,21.8526 C184.421,22.5684 183.874,23.1474 183.158,23.5895 C182.442,24.0316 181.656,24.2526 180.8,24.2526 C179.565,24.2526 178.498,23.8035 177.6,22.9053 C176.702,22.007 176.253,20.9403 176.253,19.7053 C176.253,18.4421 176.702,17.3684 177.6,16.4842 C178.498,15.6 179.565,15.1579 180.8,15.1579 C181.586,15.1579 182.326,15.3544 183.021,15.7474 C183.716,16.1404 184.253,16.6386 184.631,17.2421 L178.758,22.421 C179.347,22.8701 180.028,23.0947 180.8,23.0947 C181.445,23.0947 182.031,22.9333 182.558,22.6104 C183.084,22.2876 183.495,21.8455 183.789,21.2841 L183.789,21.2842 M177.979,21.6 L183.011,17.1368 C182.379,16.5894 181.642,16.3157 180.8,16.3157 C179.846,16.3157 179.042,16.6421 178.389,17.2947 C177.737,17.9473 177.411,18.7508 177.411,19.7052 C177.411,20.3929 177.6,21.0245 177.979,21.5999 L177.979,21.6 M190.316,24.2526 C188.968,24.2526 187.839,23.7474 186.926,22.7368 L186.926,29.7263 L185.768,29.7263 L185.768,15.3893 L187.032,16.5682 C187.944,15.6279 189.039,15.1577 190.316,15.1577 C191.579,15.1577 192.653,15.5998 193.537,16.484 C194.421,17.3682 194.863,18.4419 194.863,19.7051 C194.863,20.9402 194.421,22.0069 193.537,22.9051 C192.653,23.8034 191.579,24.2525 190.316,24.2525 L190.316,24.2526 M190.316,23.0947 C191.27,23.0947 192.074,22.7684 192.726,22.1158 C193.379,21.4632 193.705,20.6597 193.705,19.7053 C193.705,18.7509 193.379,17.9474 192.726,17.2948 C192.074,16.6422 191.27,16.3158 190.316,16.3158 C189.375,16.3158 188.575,16.6457 187.916,17.3053 C187.256,17.965 186.926,18.765 186.926,19.7053 C186.926,20.6457 187.256,21.4457 187.916,22.1053 C188.575,22.765 189.375,23.0948 190.316,23.0948 L190.316,23.0947 M200.042,15.1579 C201.305,15.1579 202.379,15.6 203.263,16.4842 C204.147,17.3684 204.59,18.4421 204.589,19.7053 C204.59,20.9404 204.147,22.0071 203.263,22.9053 C202.379,23.8036 201.305,24.2527 200.042,24.2527 C198.807,24.2527 197.74,23.8036 196.842,22.9053 C195.944,22.0071 195.495,20.9404 195.495,19.7053 C195.495,18.4422 195.944,17.3685 196.842,16.4843 C197.74,15.6001 198.807,15.158 200.042,15.158 L200.042,15.1579 M200.042,16.3158 C199.088,16.3158 198.284,16.6421 197.632,17.2947 C196.979,17.9474 196.653,18.7509 196.653,19.7052 C196.653,20.6596 196.979,21.4631 197.632,22.1157 C198.284,22.7684 199.088,23.0947 200.042,23.0947 C200.982,23.0947 201.783,22.7649 202.442,22.1052 C203.102,21.4456 203.432,20.6456 203.432,19.7052 C203.432,18.7649 203.102,17.9649 202.442,17.3052 C201.782,16.6456 200.982,16.3158 200.042,16.3158 L200.042,16.3158 M210.042,15.3684 L209.516,16.4 C209.347,16.3439 209.144,16.3158 208.905,16.3158 C208.26,16.3158 207.73,16.5333 207.316,16.9684 C206.902,17.4035 206.695,17.9228 206.695,18.5263 L206.695,24 L205.537,24 L205.537,15.3895 L206.505,16.1685 C207.151,15.4948 207.951,15.1579 208.905,15.1579 C209.326,15.1579 209.705,15.2281 210.042,15.3685 L210.042,15.3684 M212.232,16.5474 L210.674,16.5474 L210.674,15.3895 L212.232,15.3895 L212.232,12.9684 L213.389,12.4 L213.389,15.3895 L214.926,15.3895 L214.926,16.5474 L213.389,16.5474 L213.389,24 L212.232,24 L212.232,16.5474 L212.232,16.5474"/>
</g>

<g fill="#000000" fill-opacity="1" stroke="#000000" stroke-opacity="1" stroke-width="1" stroke-linecap="square" stroke-linejoin="miter" stroke-miterlimit="2" transform="matrix(1.24841,0,0,1.24841,333.963,287.68)"
>
</g>

<g fill="#000000" fill-opacity="1" stroke="#000000" stroke-opacity="1" stroke-width="1" stroke-linecap="square" stroke-linejoin="miter" stroke-miterlimit="2" transform="matrix(0.528384,0,0,0.528384,287.197,106.568)"
>
</g>

<g fill="#000000" fill-opacity="1" stroke="#000000" stroke-opacity="1" stroke-width="1" stroke-linecap="square" stroke-linejoin="miter" stroke-miterlimit="2" transform="matrix(0.528384,0,0,0.528384,287.197,106.568)"
>
</g>

<g fill="#000000" fill-opacity="1" stroke="#000000" stroke-opacity="1" stroke-width="1" stroke-linecap="square" stroke-linejoin="miter" stroke-miterlimit="2" transform="matrix(1,0,0,1,0,0)"
>
</g>

<g fill="#000000" fill-opacity="1" stroke="#000000" stroke-opacity="1" stroke-width="1" stroke-linecap="square" stroke-linejoin="miter" stroke-miterlimit="2" transform="matrix(1,0,0,1,0,0)"
>
</g>

<g fill="#000000" fill-opacity="1" stroke="#000000" stroke-opacity="1" stroke-width="1" stroke-linecap="square" stroke-linejoin="miter" stroke-miterlimit="2" transform="matrix(0.528384,0,0,0.528384,287.197,106.568)"
>
</g>

<g fill="#000000" fill-opacity="1" stroke="#000000" stroke-opacity="1" stroke-width="1" stroke-linecap="square" stroke-linejoin="miter" stroke-miterlimit="2" transform="matrix(0.528384,0,0,0.528384,287.197,106.568)"
>
</g>

<g fill="#000000" fill-opacity="1" stroke="#000000" stroke-opacity="1" stroke-width="1" stroke-linecap="square" stroke-linejoin="miter" stroke-miterlimit="2" transform="matrix(1.19825,0,0,1.19825,409.791,105.371)"
>
</g>

<g fill="#000000" fill-opacity="1" stroke="#000000" stroke-opacity="1" stroke-width="1" stroke-linecap="square" stroke-linejoin="miter" stroke-miterlimit="2" transform="matrix(1.19825,0,0,1.19825,409.791,105.371)"
>
</g>

<g fill="#000000" fill-opacity="1" stroke="#000000" stroke-opacity="1" stroke-width="1" stroke-linecap="square" stroke-linejoin="miter" stroke-miterlimit="2" transform="matrix(1.19825,0,0,1.19825,409.791,105.371)"
>
</g>

<g fill="#000000" fill-opacity="1" stroke="#000000" stroke-opacity="1" stroke-width="1" stroke-linecap="square" stroke-linejoin="miter" stroke-miterlimit="2" transform="matrix(1.19825,0,0,1.19825,409.791,105.371)"
>
</g>

<g fill="#000000" fill-opacity="1" stroke="#000000" stroke-opacity="1" stroke-width="1" stroke-linecap="square" stroke-linejoin="miter" stroke-miterlimit="2" transform="matrix(1.19825,0,0,1.19825,409.791,105.371)"
>
</g>

<g fill="#000000" fill-opacity="1" stroke="#000000" stroke-opacity="1" stroke-width="1" stroke-linecap="square" stroke-linejoin="miter" stroke-miterlimit="2" transform="matrix(0.528384,0,0,0.528384,287.197,106.568)"
>
</g>

<g fill="#000000" fill-opacity="1" stroke="#000000" stroke-opacity="1" stroke-width="1" stroke-linecap="square" stroke-linejoin="miter" stroke-miterlimit="2" transform="matrix(0.528384,0,0,0.528384,287.197,106.568)"
>
</g>

<g fill="#000000" fill-opacity="1" stroke="#000000" stroke-opacity="1" stroke-width="1" stroke-linecap="square" stroke-linejoin="miter" stroke-miterlimit="2" transform="matrix(0.528384,0,0,0.528384,287.197,106.568)"
>
</g>

<g fill="#000000" fill-opacity="1" stroke="#000000" stroke-opacity="1" stroke-width="1" stroke-linecap="square" stroke-linejoin="miter" stroke-miterlimit="2" transform="matrix(0.528384,0,0,0.528384,287.197,106.568)"
>
</g>

<g fill="#000000" fill-opacity="1" stroke="#000000" stroke-opacity="1" stroke-width="1" stroke-linecap="square" stroke-linejoin="miter" stroke-miterlimit="2" transform="matrix(1,0,0,1,0,0)"
>
</g>

<g fill="#000000" fill-opacity="1" stroke="#000000" stroke-opacity="1" stroke-width="1" stroke-linecap="square" stroke-linejoin="miter" stroke-miterlimit="2" transform="matrix(1,0,0,1,0,0)"
>
</g>

<g fill="#000000" fill-opacity="1" stroke="#000000" stroke-opacity="1" stroke-width="1" stroke-linecap="square" stroke-linejoin="miter" stroke-miterlimit="2" transform="matrix(0.528384,0,0,0.528384,287.197,106.568)"
>
</g>

<g fill="#000000" fill-opacity="1" stroke="#000000" stroke-opacity="1" stroke-width="1" stroke-linecap="square" stroke-linejoin="miter" stroke-miterlimit="2" transform="matrix(1,0,0,1,0,0)"
>
</g>

<g fill="#000000" fill-opacity="1" stroke="#000000" stroke-opacity="1" stroke-width="1" stroke-linecap="square" stroke-linejoin="miter" stroke-miterlimit="2" transform="matrix(1,0,0,1,0,0)"
>
</g>

<g fill="#000000" fill-opacity="1" stroke="#000000" stroke-opacity="1" stroke-width="1" stroke-linecap="square" stroke-linejoin="miter" stroke-miterlimit="2" transform="matrix(1,0,0,1,0,0)"
>
</g>

<g fill="#000000" fill-opacity="1" stroke="#000000" stroke-opacity="1" stroke-width="1" stroke-linecap="square" stroke-linejoin="miter" stroke-miterlimit="2" transform="matrix(1,0,0,1,0,0)"
>
</g>
</g>
</svg>
